<svg xmlns="http://www.w3.org/2000/svg" viewBox="0 0 1390 310" role="img" aria-labelledby="title"><title id="title">FULL TIME — LAVANDERIA · ALFAIATARIA</title><g transform="translate(16 12)"><g fill="#12203b"><path d="M0 0h144v52H60v28h77v52H60v80H0Z"/><path d="M400 0h60v158h73v54H400Z"/><path d="M545 0h60v158h73v54H545Z"/><path d="M710 0h160v52h-50v160h-60V52h-50Z"/><path d="M960 0h72l45 78 45-78h72v212h-60V111l-43 69h-29l-42-69v101h-60Z"/><path d="M1208 0h150v52h-90v28h79v52h-79v28h90v52h-150Z"/></g><g transform="translate(158 0)"><path d="M0 0h56v108c0 78 114 78 114 0V0h56v108c0 155-226 155-226 0Z" fill="#1949db"/><path d="M64 98c35-24 59 18 98-4v18c0 67-98 67-98 0Z" fill="#1949db"/><circle cx="131" cy="68" r="13" fill="#1949db"/><circle cx="142" cy="35" r="9" fill="#1949db"/></g><rect x="884" y="0" width="60" height="212" rx="17" fill="#1949db"/><path d="M914 13v20m0 20v23m0 23v66m0 22v12" stroke="#e0f187" stroke-width="6" stroke-linecap="round"/></g><text x="695" y="293" text-anchor="middle" textLength="1120" lengthAdjust="spacing" fill="#12203b" font-family="Arial,Helvetica,sans-serif" font-size="36" letter-spacing="7">LAVANDERIA · ALFAIATARIA</text></svg>